<svg width="28" height="28" viewBox="0 0 28 28" fill="none" xmlns="http://www.w3.org/2000/svg">
<g clip-path="url(#clip0_1505_184)">
<path d="M22.0081 4.17505C21.7279 4.17505 21.4512 4.19446 21.1753 4.23411C19.6 2.08761 17.1135 0.800049 14.4143 0.800049C11.7152 0.800049 9.22946 2.08761 7.65334 4.23411C7.37743 4.19446 7.10068 4.17505 6.82056 4.17505C3.56453 4.17505 0.914307 6.82527 0.914307 10.0813C0.914307 13.3373 3.56453 15.9875 6.82056 15.9875C7.54281 15.9875 8.24903 15.8559 8.91474 15.6011C10.4419 16.9325 12.3842 17.675 14.4143 17.675C16.4469 17.675 18.3867 16.9325 19.9139 15.6011C20.5796 15.8559 21.2858 15.9875 22.0081 15.9875C25.2641 15.9875 27.9143 13.3373 27.9143 10.0813C27.9143 6.82527 25.2641 4.17505 22.0081 4.17505ZM22.0081 14.3C21.1052 14.3 20.2725 14.0098 19.5856 13.5263C18.3479 15.0181 16.5043 15.9875 14.4143 15.9875C12.3243 15.9875 10.4807 15.0189 9.24296 13.5263C8.55699 14.0098 7.72337 14.3 6.82056 14.3C4.49012 14.3 2.60181 12.4117 2.60181 10.0813C2.60181 7.75086 4.49012 5.86255 6.82056 5.86255C7.39093 5.86255 7.93093 5.97899 8.42537 6.18317C9.54503 3.99955 11.7928 2.48755 14.4143 2.48755C17.0358 2.48755 19.2836 3.99955 20.4016 6.18317C20.8968 5.97899 21.4385 5.86255 22.0081 5.86255C24.3385 5.86255 26.2268 7.75086 26.2268 10.0813C26.2268 12.4117 24.3385 14.3 22.0081 14.3ZM12.78 26.1125C12.78 27.0449 13.5351 27.8 14.4675 27.8C15.3998 27.8 16.155 27.0449 16.155 26.1125C16.155 25.1802 14.4675 22.7375 14.4675 22.7375C14.4675 22.7375 12.78 25.1802 12.78 26.1125ZM19.4768 24.425C19.4768 25.3574 20.232 26.1125 21.1643 26.1125C22.0967 26.1125 22.8518 25.3574 22.8518 24.425C22.8518 23.4927 21.1643 21.05 21.1643 21.05C21.1643 21.05 19.4768 23.4927 19.4768 24.425ZM5.97681 21.05C5.97681 21.9824 6.73112 22.7375 7.66431 22.7375C8.59749 22.7375 9.35181 21.9824 9.35181 21.05C9.35181 20.1177 7.66431 17.675 7.66431 17.675C7.66431 17.675 5.97681 20.1177 5.97681 21.05Z" fill="#F5F5F5"/>
</g>
<defs>
<clipPath id="clip0_1505_184">
<rect width="27" height="27" fill="white" transform="translate(0.914307 0.800049)"/>
</clipPath>
</defs>
</svg>
