<svg width="28" height="33" viewBox="0 0 28 33" fill="none" xmlns="http://www.w3.org/2000/svg">
<g clip-path="url(#clip0_1505_158)">
<path d="M14.0142 20.5836V5.29205C14.0142 4.08844 13.0348 3.10925 11.831 3.10925C10.6271 3.10925 9.64772 4.08844 9.64772 5.29205V20.5836C8.21812 21.3731 7.31519 22.8821 7.31519 24.5358C7.31519 27.0253 9.34094 29.0506 11.831 29.0506C14.321 29.0506 16.3468 27.0253 16.3468 24.5358C16.3468 22.8821 15.4438 21.3731 14.0142 20.5836ZM11.831 4.3655C12.342 4.3655 12.7577 4.78113 12.7577 5.29205V12.4792H10.9042V5.29205C10.9042 4.78113 11.32 4.3655 11.831 4.3655ZM11.831 27.7944C10.0338 27.7944 8.5717 26.3326 8.5717 24.5358C8.5717 23.2405 9.33943 22.0681 10.5276 21.5489C10.7564 21.4489 10.9042 21.223 10.9042 20.9734V13.7354H12.7577V20.9734C12.7577 21.223 12.9056 21.4489 13.1344 21.5489C14.3225 22.0681 15.0902 23.2405 15.0902 24.5358C15.0902 26.3326 13.6281 27.7944 11.831 27.7944Z" fill="#F5F5F5"/>
<path d="M1.54281 9.84866H4.65281C4.99973 9.84866 5.28107 9.56745 5.28107 9.22053C5.28107 8.87362 4.99973 8.59241 4.65281 8.59241H1.54281C1.19588 8.59241 0.914551 8.87362 0.914551 9.22053C0.914551 9.56745 1.19582 9.84866 1.54281 9.84866Z" fill="#F5F5F5"/>
<path d="M3.09774 5.96194H4.65274C4.99966 5.96194 5.281 5.68073 5.281 5.33381C5.281 4.9869 4.99966 4.70569 4.65274 4.70569H3.09774C2.75082 4.70569 2.46948 4.9869 2.46948 5.33381C2.46948 5.68073 2.75075 5.96194 3.09774 5.96194Z" fill="#F5F5F5"/>
<path d="M5.28107 16.994C5.28107 16.6471 4.99973 16.3658 4.65281 16.3658H1.54281C1.19588 16.3658 0.914551 16.6471 0.914551 16.994C0.914551 17.3409 1.19588 17.6221 1.54281 17.6221H4.65281C4.99973 17.6221 5.28107 17.3409 5.28107 16.994Z" fill="#F5F5F5"/>
<path d="M4.65274 12.4791H3.09774C2.75082 12.4791 2.46948 12.7603 2.46948 13.1073C2.46948 13.4542 2.75082 13.7354 3.09774 13.7354H4.65274C4.99966 13.7354 5.281 13.4542 5.281 13.1073C5.281 12.7603 4.99966 12.4791 4.65274 12.4791Z" fill="#F5F5F5"/>
<path d="M25.3776 8.65022C25.0906 5.80557 22.6816 3.5778 19.7619 3.5778C18.7989 3.5778 17.8585 3.82547 17.027 4.28601C16.5554 1.84757 14.4054 0 11.8308 0C8.91207 0 6.5375 2.37406 6.5375 5.2922V19.0526C4.98621 20.5495 4.14051 22.6213 4.20893 24.7815C4.33496 28.7617 7.55076 32.0001 11.5301 32.1542C11.6319 32.1582 11.7333 32.1601 11.8345 32.1601C13.8139 32.1601 15.6788 31.4098 17.1146 30.0288C18.6249 28.5761 19.4567 26.6253 19.4567 24.5358C19.4567 23.927 19.3826 23.3256 19.2409 22.7432H20.9281C22.0145 22.7432 22.8983 21.8593 22.8983 20.7728C22.8983 19.8902 22.3144 19.1414 21.5124 18.892C21.254 17.3214 19.8865 16.1196 18.2436 16.1196C17.859 16.1196 17.4806 16.1871 17.1242 16.315V14.8633H24.778C26.5074 14.8633 27.9143 13.4567 27.9143 11.7277C27.9142 10.204 26.8211 8.93068 25.3776 8.65022ZM18.2436 17.3758C19.2035 17.3758 20.0117 18.037 20.2371 18.9277C20.1052 18.9771 19.9784 19.0407 19.8589 19.1181C19.5675 19.3065 19.4841 19.6953 19.6725 19.9866C19.7927 20.1725 19.9946 20.2737 20.2007 20.2737C20.3175 20.2737 20.4358 20.2411 20.5412 20.1729C20.6548 20.0995 20.7866 20.0605 20.923 20.0595C20.9247 20.0595 20.9264 20.0598 20.9281 20.0598C21.3216 20.0598 21.6418 20.3796 21.6418 20.7727C21.6418 21.1666 21.3215 21.4869 20.9281 21.4869H18.8165C18.42 20.5813 17.8482 19.7519 17.1241 19.0527V17.7071C17.4553 17.492 17.8441 17.3758 18.2436 17.3758ZM24.778 13.6071H17.1241V11.7331C17.1241 11.3861 16.8429 11.1049 16.4959 11.1049C16.149 11.1049 15.8676 11.3861 15.8676 11.7331V19.326C15.8676 19.5045 15.9436 19.6746 16.0766 19.7938C17.4261 21.003 18.2002 22.7313 18.2002 24.5358C18.2002 26.2805 17.5052 27.9097 16.2435 29.1234C14.9828 30.3359 13.3267 30.9666 11.5787 30.8988C8.25554 30.7702 5.56999 28.0657 5.46482 24.7417C5.40513 22.858 6.17795 21.0546 7.58506 19.7937C7.71806 19.6746 7.79402 19.5045 7.79402 19.326V5.2922C7.79402 3.06676 9.60491 1.25625 11.8308 1.25625C14.0567 1.25625 15.8676 3.06676 15.8676 5.2922V6.70806C15.8676 7.05497 16.149 7.33619 16.4959 7.33619C16.8429 7.33619 17.1241 7.05497 17.1241 6.70806V5.71657C17.8817 5.14623 18.8076 4.83405 19.7619 4.83405C21.9923 4.83405 23.838 6.50694 24.113 8.66335C23.7461 8.74262 23.3954 8.88747 23.0768 9.09343C22.7854 9.2818 22.7019 9.67061 22.8904 9.96194C23.0105 10.1479 23.2125 10.2491 23.4185 10.2491C23.5353 10.2491 23.6536 10.2165 23.7591 10.1483C24.0613 9.95289 24.4124 9.84944 24.7744 9.84875C24.7756 9.84875 24.7767 9.84894 24.7779 9.84894C25.8144 9.84894 26.6576 10.6917 26.6576 11.7277C26.6577 12.764 25.8145 13.6071 24.778 13.6071Z" fill="#F5F5F5"/>
<path d="M16.4959 9.84866C16.8429 9.84866 17.1242 9.56744 17.1242 9.22053C17.1242 8.87363 16.8429 8.59241 16.4959 8.59241C16.149 8.59241 15.8677 8.87363 15.8677 9.22053C15.8677 9.56744 16.149 9.84866 16.4959 9.84866Z" fill="#F5F5F5"/>
</g>
<defs>
<clipPath id="clip0_1505_158">
<rect width="27" height="32.16" fill="white" transform="translate(0.914307)"/>
</clipPath>
</defs>
</svg>
