<svg width="28" height="21" viewBox="0 0 28 21" fill="none" xmlns="http://www.w3.org/2000/svg">
<g clip-path="url(#clip0_1505_190)">
<path d="M27.9143 8.20007C27.9143 5.99107 26.1193 4.20007 23.9143 4.20007C21.7053 4.20007 19.9143 5.98907 19.9143 8.20007H21.9143C21.9143 7.09507 22.8023 6.20007 23.9143 6.20007C25.0193 6.20007 25.9143 7.08807 25.9143 8.20007C25.9143 9.30507 25.0243 10.2001 23.9103 10.2001H0.914307V12.2001H23.9163C26.1243 12.2001 27.9143 10.4051 27.9143 8.20007ZM18.9143 4.20007C18.9143 1.99107 17.1193 0.200073 14.9143 0.200073C12.7053 0.200073 10.9143 1.98907 10.9143 4.19707V4.20007H12.9143C12.9143 3.09507 13.8023 2.20007 14.9143 2.20007C16.0193 2.20007 16.9143 3.08807 16.9143 4.20007C16.9143 5.30507 16.0173 6.20007 14.9083 6.20007H2.91431V8.20007H14.9183C17.1253 8.20007 18.9143 6.40507 18.9143 4.20007ZM23.9143 17.2001C23.9143 18.8571 22.5673 20.2001 20.9143 20.2001C19.2573 20.2001 17.9143 18.8581 17.9143 17.2091V17.2001H19.9143C19.9143 17.7521 20.3583 18.2001 20.9143 18.2001C21.4663 18.2001 21.9143 17.7561 21.9143 17.2001C21.9143 16.6481 21.4653 16.2001 20.9073 16.2001H6.91431V14.2001H20.9143C22.5713 14.2001 23.9143 15.5471 23.9143 17.2001Z" fill="#F5F5F5"/>
</g>
<defs>
<clipPath id="clip0_1505_190">
<rect width="27" height="20" fill="white" transform="translate(0.914307 0.200073)"/>
</clipPath>
</defs>
</svg>
